<svg id="Слой_1" data-name="Слой 1" xmlns="http://www.w3.org/2000/svg" xmlns:xlink="http://www.w3.org/1999/xlink" viewBox="0 0 256 256"><defs><style>.cls-1{fill:#f0f7f9;}.cls-2{fill:url(#Безымянный_градиент_15);}</style><linearGradient id="Безымянный_градиент_15" x1="73.15" y1="230.89" x2="187.71" y2="32.46" gradientUnits="userSpaceOnUse"><stop offset="0" stop-color="#1adcff"/><stop offset="1" stop-color="#4cafff"/></linearGradient></defs><rect class="cls-1" width="256" height="256"/><path class="cls-2" d="M56.1,130.42a22.16,22.16,0,1,0,22.16,22.15A22.18,22.18,0,0,0,56.1,130.42Zm0,37A14.87,14.87,0,1,1,71,152.57,14.89,14.89,0,0,1,56.1,167.44ZM209,116.54v-68a3,3,0,0,0-3-3H193.06V39a6,6,0,0,0-6-6h-6.84a6,6,0,0,0-6,6v6.53H153.74V39a6,6,0,0,0-6-6H140.9a6,6,0,0,0-6,6v6.53H114.3V39a6,6,0,0,0-6-6h-6.84a6,6,0,0,0-6,6v6.53H74.86V39a6,6,0,0,0-6-6H62a6,6,0,0,0-6,6v6.53H42.74a3,3,0,0,0-3,3v66.68s0,.08,0,.12a40.74,40.74,0,0,0-24.32,37.24v2.64a44.27,44.27,0,0,0,8.44,26.08L49,216a8.83,8.83,0,0,0,7.14,3.66,8.66,8.66,0,0,0,7.15-3.77l17-24.84a2.81,2.81,0,0,0,.77.11h53a56,56,0,1,0,75-74.65ZM180.22,39h6.84V57.47h-6.85ZM140.9,39h6.84V57.47H140.9Zm-39.44,0h6.84V57.47h-6.84ZM62,39h6.84V57.47H62ZM45.74,51.54H56v5.93a6,6,0,0,0,6,6h6.84a6,6,0,0,0,6-6V51.54h20.6v5.93a6,6,0,0,0,6,6h6.84a6,6,0,0,0,6-6V51.54h20.6v5.93a6,6,0,0,0,6,6h6.84a6,6,0,0,0,6-6V51.54h20.48v5.93a6,6,0,0,0,6,6h6.84a6,6,0,0,0,6-6V51.54H203V71.69H45.74ZM57.23,211.8a1.48,1.48,0,0,1-2.36,0L29.77,177a37.06,37.06,0,0,1-7-21.81v-2.64a33.38,33.38,0,0,1,66.76,0,38.94,38.94,0,0,1-6.83,22.08Zm76.5-92.38h-18a3,3,0,0,0-3,3v18a3,3,0,0,0,3,3h17.94a55.65,55.65,0,0,0-2.6,6.68H115.73a3,3,0,0,0-3,3v18a3,3,0,0,0,3,3H129a55.28,55.28,0,0,0,2.6,11.09H84.27l4.39-6.42a46,46,0,0,0,2.82-4.7c.11,0,.21,0,.32,0h12.77a3,3,0,0,0,3-3v-18a3,3,0,0,0-3-3H96.69a40.89,40.89,0,0,0-1-6.68h8.85a3,3,0,0,0,3-3v-18a3,3,0,0,0-3-3h-18a3,3,0,0,0-3,3v.19a40.55,40.55,0,0,0-22.22-10.36H75.41a3,3,0,0,0,3-3v-18a3,3,0,0,0-3-3h-18a3,3,0,0,0-3,3v18A3,3,0,0,0,56,111.9h-.56a40.65,40.65,0,0,0-9.74,1.34V77.69H203V114a55.61,55.61,0,0,0-10.49-2.56v-5.3h5.65a3,3,0,0,0,3-3V91.25a3,3,0,0,0-3-3H170.49a3,3,0,0,0-3,3v11.93a3,3,0,0,0,3,3h5.65v5.35a56.16,56.16,0,0,0-39.41,26.17V122.42A3,3,0,0,0,133.73,119.42Zm-3,6v12h-12v-12Zm-2.22,42.68h-9.78v-12h10.81a56.12,56.12,0,0,0-1.06,10.84C128.48,167.33,128.5,167.72,128.51,168.1ZM89.57,129.5v-4.08h12v12H93.83A40.57,40.57,0,0,0,89.57,129.5Zm4.53,38.6a46.09,46.09,0,0,0,2.54-12h4.93v12ZM60.41,106.25v-12h12v12Zm118.73-6.07h-5.65V94.25h21.67v5.93h-16Zm7.37,6v4.36h-4.37v-4.36Zm-2,110.81a50,50,0,1,1,50-50.05A50.1,50.1,0,0,1,184.52,217Zm0-93.86a43.82,43.82,0,1,0,43.82,43.81A43.86,43.86,0,0,0,184.52,123.13Zm0,81.63a37.82,37.82,0,1,1,37.82-37.82A37.86,37.86,0,0,1,184.52,204.76ZM192,162.83a3,3,0,0,1-1.08,4.1l-3.41,2v1.68a3,3,0,0,1-3,3,3,3,0,0,1-2.54-1.44l-14.21,8.3a3,3,0,0,1-1.51.41,3,3,0,0,1-1.52-5.59l16.78-9.8V138.2a3,3,0,0,1,6,0V162l.38-.22A3,3,0,0,1,192,162.83ZM104.57,88.25h-18a3,3,0,0,0-3,3v18a3,3,0,0,0,3,3h18a3,3,0,0,0,3-3v-18A3,3,0,0,0,104.57,88.25Zm-3,18h-12v-12h12Zm35.16,3v-18a3,3,0,0,0-3-3h-18a3,3,0,0,0-3,3v18a3,3,0,0,0,3,3h18A3,3,0,0,0,136.73,109.25Zm-6-3h-12v-12h12Zm14.16,6h18a3,3,0,0,0,3-3v-18a3,3,0,0,0-3-3h-18a3,3,0,0,0-3,3v18A3,3,0,0,0,144.89,112.25Zm3-18h12v12h-12Z"/></svg>